<?xml version="1.0" encoding="utf-8"?>
<!-- Generator: Adobe Illustrator 26.4.1, SVG Export Plug-In . SVG Version: 6.00 Build 0)  -->
<svg version="1.1" id="Layer_1" xmlns="http://www.w3.org/2000/svg" xmlns:xlink="http://www.w3.org/1999/xlink" x="0px" y="0px"
	 viewBox="0 0 1021 361" style="enable-background:new 0 0 1021 361;" xml:space="preserve">
<style type="text/css">
	.st0{opacity:0.6;}
	.st1{fill-rule:evenodd;clip-rule:evenodd;fill:#D8D8D8;}
</style>
<g class="st0">
	<circle class="st1" cx="70.5" cy="240.5" r="1"/>
	<circle class="st1" cx="230.5" cy="100.5" r="1"/>
	<circle class="st1" cx="300.5" cy="290.5" r="1"/>
	<circle class="st1" cx="400.5" cy="170.5" r="1"/>
	<circle class="st1" cx="381" cy="21" r="1"/>
	<circle class="st1" cx="581" cy="61" r="1"/>
	<circle class="st1" cx="840.5" cy="140.5" r="1"/>
	<circle class="st1" cx="720.5" cy="190.5" r="1"/>
	<circle class="st1" cx="720.5" cy="360.5" r="1"/>
	<circle class="st1" cx="860.5" cy="310.5" r="1"/>
	<circle class="st1" cx="1011" cy="211" r="1"/>
	<circle class="st1" cx="1020.5" cy="20.5" r="1"/>
	<circle class="st1" cx="910.5" cy="50.5" r="1"/>
	<circle class="st1" cx="860.5" cy="0.5" r="1"/>
	<circle class="st1" cx="340.5" cy="50.5" r="1"/>
	<circle class="st1" cx="200.5" cy="160.5" r="1"/>
	<circle class="st1" cx="120.5" cy="30.5" r="1"/>
	<circle class="st1" cx="0.5" cy="110.5" r="1"/>
</g>
<g class="st0">
	<circle class="st1" cx="141" cy="231.5" r="1"/>
	<circle class="st1" cx="301" cy="91.5" r="1"/>
	<circle class="st1" cx="371" cy="281.5" r="1"/>
	<circle class="st1" cx="471" cy="161.5" r="1"/>
	<circle class="st1" cx="451.5" cy="12" r="1"/>
	<circle class="st1" cx="651.5" cy="52" r="1"/>
	<circle class="st1" cx="911" cy="131.5" r="1"/>
	<circle class="st1" cx="791" cy="181.5" r="1"/>
	<circle class="st1" cx="791" cy="351.5" r="1"/>
	<circle class="st1" cx="931" cy="301.5" r="1"/>
	<circle class="st1" cx="1081.5" cy="202" r="1"/>
	<circle class="st1" cx="1091" cy="11.5" r="1"/>
	<circle class="st1" cx="981" cy="41.5" r="1"/>
	<circle class="st1" cx="931" cy="-8.5" r="1"/>
	<circle class="st1" cx="411" cy="41.5" r="1"/>
	<circle class="st1" cx="271" cy="151.5" r="1"/>
	<circle class="st1" cx="191" cy="21.5" r="1"/>
	<circle class="st1" cx="71" cy="101.5" r="1"/>
</g>
</svg>
